<?xml version="1.0" encoding="utf-8"?>
<svg version="1.1" xmlns="http://www.w3.org/2000/svg" xmlns:xlink="http://www.w3.org/1999/xlink" x="0px" y="0px"
	 viewBox="0 0 48 48" style="enable-background:new 0 0 48 48;" xml:space="preserve">
<g id="Corners">
	<g>
		<polygon style="fill:#B0B0B0;" points="3,11 6,11 6,5 12,5 12,2 3,2 		"/>
		<polygon style="fill:#B0B0B0;" points="36,2 36,5 42,5 42,11 45,11 45,2 		"/>
		<polygon style="fill:#B0B0B0;" points="6,35 3,35 3,44 12,44 12,41 6,41 		"/>
		<polygon style="fill:#B0B0B0;" points="42,41 36,41 36,44 45,44 45,35 42,35 		"/>
	</g>
</g>
<g id="bottom_body">
	<path style="fill:#9E9E9E;" d="M38,27H10v7.1c0,1.6,1.4,2.9,3.1,2.9h21.8c1.7,0,3.1-1.3,3.1-2.9V27z"/>
</g>
<g id="top_body">
	<path style="fill:#646464;" d="M34.9,30H13.1c-1.7,0-3.1-1.3-3.1-3l2.3-13.9c0-1.7,1.4-3.1,3.1-3.1h17.1c1.7,0,3.1,1.4,3.1,3.1L38,27
		C38,28.7,36.6,30,34.9,30z"/>
</g>
<g id="Disk">
	<ellipse style="fill:#FCFCFC;" cx="24" cy="19.5" rx="9" ry="5.5"/>
	<ellipse style="fill:#646464;" cx="24" cy="19.5" rx="2.5" ry="1.5"/>
</g>
</svg>
