<?xml version="1.0" encoding="utf-8"?>
<svg version="1.1" xmlns="http://www.w3.org/2000/svg" xmlns:xlink="http://www.w3.org/1999/xlink" x="0px" y="0px"
	 viewBox="0 0 48 48" style="enable-background:new 0 0 48 48;" xml:space="preserve">
<g id="bottom_bg">
	<rect x="1" y="32" style="fill:#2B454E;" width="46" height="14"/>
</g>
<g id="Corners">
	<polygon style="fill:#88A6B0;" points="6,11 3,11 3,2 12,2 12,5 6,5 	"/>
	<polygon style="fill:#88A6B0;" points="45,11 42,11 42,5 36,5 36,2 45,2 	"/>
	<polygon style="fill:#00B9D6;" points="45,44 36,44 36,41 42,41 42,35 45,35 	"/>
	<polygon style="fill:#00B9D6;" points="12,44 3,44 3,35 6,35 6,41 12,41 	"/>
</g>
<g id="bottom_body">
	<path style="fill:#6D919E;" d="M38,27H10v7.1c0,1.6,1.4,2.9,3.1,2.9h21.8c1.7,0,3.1-1.3,3.1-2.9V27z"/>
</g>
<g id="bottom_body_highlight">
	<path style="fill:#00E6FF;" d="M38,32H10v2.1c0,1.6,1.4,2.9,3.1,2.9h21.8c1.7,0,3.1-1.3,3.1-2.9V32z"/>
</g>
<g id="top_body">
	<path style="fill:#475E64;" d="M34.9,30H13.1c-1.7,0-3.1-1.3-3.1-3l2.3-13.9c0-1.7,1.4-3.1,3.1-3.1h17.1c1.7,0,3.1,1.4,3.1,3.1L38,27
		C38,28.7,36.6,30,34.9,30z"/>
</g>
<g id="Disk">
	<ellipse style="fill:#ACDFFC;" cx="24" cy="19.5" rx="9" ry="5.5"/>
	<ellipse style="fill:#375A64;" cx="24" cy="19.5" rx="2.5" ry="1.5"/>
</g>
<g id="sanline">
	<rect x="1" y="29" style="fill:#1EFFFF; opacity:0.82;" width="46" height="3"/>
</g>
</svg>
