<?xml version="1.0" encoding="utf-8"?>
<svg version="1.1" id="Layer_1" xmlns="http://www.w3.org/2000/svg" xmlns:xlink="http://www.w3.org/1999/xlink" x="0px" y="0px"
	 viewBox="0 0 48 48" style="enable-background:new 0 0 48 48;" xml:space="preserve">
<g>
	<path style="fill:#ffffff;" d="M36.9,12.4H20.4l-0.8-1.3c-0.5-0.8-1.3-1.2-2.2-1.2h-6.3c-1.4,0-2.6,1.2-2.6,2.6v3.9v2.6H33h6.4V15
		C39.4,13.6,38.3,12.4,36.9,12.4z"/>
	<path style="fill:#ffffff;" d="M40.1,21.4H24H7.9c-1.3,0-2.2,1.3-1.8,2.5l3.8,12.4c0.3,1.1,1.3,1.8,2.5,1.8H24h11.6c1.1,0,2.1-0.7,2.5-1.8l3.8-12.4
		C42.3,22.7,41.4,21.4,40.1,21.4z"/>
</g>
</svg>
