<?xml version="1.0" encoding="utf-8"?>
<svg version="1.1" xmlns="http://www.w3.org/2000/svg" xmlns:xlink="http://www.w3.org/1999/xlink" x="0px" y="0px"
	 viewBox="0 0 48 48" style="enable-background:new 0 0 48 48;" xml:space="preserve">
<path style="fill:#000000;" d="M20,35.5c0,0,0,4.5,4,4.5s4-4.5,4-4.5H20z"/>
<circle style="fill:#000000;" cx="31" cy="11" r="4.5"/>
<path style="fill:#000000;" d="M33.6,17.5C32.8,17.8,31.9,18,31,18c-3.9,0-7-3.1-7-7c0-1.4,0.4-2.6,1.1-3.7C24.8,7.1,24.4,7,24,7c-1.6,0-2.1,1.7-2.1,2.2
	C8.9,16.7,15.4,29.4,9,30.5C9,31.8,9,33,9,33h30c0,0,0-1.4,0-2.5C34.6,29.7,36.2,23.6,33.6,17.5z"/>
</svg>
