<?xml version="1.0" encoding="utf-8"?>
<svg version="1.1" id="Layer_2" xmlns="http://www.w3.org/2000/svg" xmlns:xlink="http://www.w3.org/1999/xlink" x="0px" y="0px"
	 viewBox="0 0 48 48" style="enable-background:new 0 0 48 48;" xml:space="preserve">
<g>
	<path style="fill:#000000;" d="M19.8,36.5v1.4c0,1.5,1.2,2.8,2.8,2.8c0,0.8,0.6,1.4,1.4,1.4s1.4-0.6,1.4-1.4c1.5,0,2.8-1.2,2.8-2.8v-1.4H19.8z"/>
	<path style="fill:#000000;" d="M24,6c-6.9,0-12.5,5.6-12.5,12.5c0,6.9,5.5,9.7,8.3,15.2h8.3c2.8-5.5,8.3-8.3,8.3-15.2C36.5,11.6,30.9,6,24,6z M24,26.8
		v-6.9h-5.5l5.5-9.7v6.9h5.5L24,26.8z"/>
</g>
</svg>
