<?xml version="1.0" encoding="utf-8"?>
<svg version="1.1" id="Layer_1" xmlns="http://www.w3.org/2000/svg" xmlns:xlink="http://www.w3.org/1999/xlink" x="0px" y="0px"
	 viewBox="0 0 48 48" style="enable-background:new 0 0 48 48;" xml:space="preserve">
<g>
	<path style="fill:#ffffff;" d="M26.5,6c-0.1,0-0.2,0-0.4,0v17.6H43c0-0.4,0-0.7,0-1.1C43,13.4,35.6,6,26.5,6z"/>
	<path style="fill:#ffffff;" d="M40,26.6H23.2V8.9c0.1,0,0.2,0,0.4,0C14.4,8.9,7,16.3,7,25.5S14.4,42,23.5,42
		c9.1,0,16.5-6.3,16.5-15.3C40.1,26.7,40,26.3,40,26.6z"/>
	<path style="fill:#ffffff;" d="M40.1,26.7c0,0,0,0,0-0.1C40.1,26.6,40.1,26.6,40.1,26.7z"/>
</g>
</svg>
